<svg xmlns="http://www.w3.org/2000/svg" xmlns:xlink="http://www.w3.org/1999/xlink" width="500" zoomAndPan="magnify" viewBox="0 0 375 225" height="300" preserveAspectRatio="xMidYMid meet" version="1.0"><defs><g/></defs><g fill="#ff2403" fill-opacity="1"><g transform="translate(6.733928, 172.257284)"><g><path d="M -1.328125 -79.171875 C -1.328125 -79.878906 -1.101562 -80.320312 -0.65625 -80.5 C -0.21875 -80.675781 0.046875 -80.8125 0.140625 -80.90625 C 1.203125 -81.34375 2.910156 -82.09375 5.265625 -83.15625 C 7.628906 -84.226562 10.34375 -85.453125 13.40625 -86.828125 C 16.476562 -88.210938 19.570312 -89.570312 22.6875 -90.90625 C 25.8125 -92.25 28.707031 -93.34375 31.375 -94.1875 C 34.039062 -95.03125 36.175781 -95.453125 37.78125 -95.453125 C 39.738281 -95.453125 40.894531 -94.914062 41.25 -93.84375 C 41.601562 -92.78125 41.78125 -91.582031 41.78125 -90.25 L 41.78125 -86.234375 C 42.050781 -85.617188 42.363281 -85.242188 42.71875 -85.109375 C 43.070312 -84.972656 43.472656 -84.90625 43.921875 -84.90625 C 44.628906 -84.90625 45.492188 -85.4375 46.515625 -86.5 C 47.546875 -87.570312 48.90625 -88.796875 50.59375 -90.171875 C 52.289062 -91.554688 54.40625 -92.78125 56.9375 -93.84375 C 59.476562 -94.914062 62.613281 -95.453125 66.34375 -95.453125 C 72.9375 -95.453125 78.613281 -93.960938 83.375 -90.984375 C 88.132812 -88.003906 92.046875 -84.066406 95.109375 -79.171875 C 98.179688 -74.273438 100.453125 -68.84375 101.921875 -62.875 C 103.390625 -56.914062 104.125 -50.910156 104.125 -44.859375 C 104.125 -36.222656 102.65625 -28.367188 99.71875 -21.296875 C 96.78125 -14.222656 92.484375 -8.570312 86.828125 -4.34375 C 81.179688 -0.113281 74.351562 2 66.34375 2 C 62.875 2 59.222656 1.132812 55.390625 -0.59375 C 51.566406 -2.332031 47.832031 -6.050781 44.1875 -11.75 C 43.738281 -12.457031 43.222656 -12.96875 42.640625 -13.28125 C 42.066406 -13.59375 41.78125 -13.257812 41.78125 -12.28125 L 41.78125 29.109375 C 41.78125 32.484375 41.269531 35.148438 40.25 37.109375 C 39.226562 39.066406 37.289062 40.046875 34.4375 40.046875 L 1.734375 40.046875 C 3.515625 38.265625 4.738281 36.148438 5.40625 33.703125 C 6.070312 31.253906 6.40625 28.117188 6.40625 24.296875 L 6.40625 -67.015625 C 6.40625 -67.546875 6.359375 -68.5 6.265625 -69.875 C 6.179688 -71.257812 5.757812 -72.664062 5 -74.09375 C 4.25 -75.519531 2.804688 -76.585938 0.671875 -77.296875 C 0.492188 -77.390625 0.117188 -77.523438 -0.453125 -77.703125 C -1.035156 -77.878906 -1.328125 -78.367188 -1.328125 -79.171875 Z M 41.78125 -61.8125 L 41.78125 -35.78125 C 41.78125 -33.90625 41.890625 -31.789062 42.109375 -29.4375 C 42.335938 -27.082031 42.851562 -24.769531 43.65625 -22.5 C 44.457031 -20.226562 45.632812 -18.359375 47.1875 -16.890625 C 48.75 -15.421875 50.863281 -14.6875 53.53125 -14.6875 C 57.269531 -14.6875 60.1875 -15.707031 62.28125 -17.75 C 64.375 -19.800781 65.882812 -22.492188 66.8125 -25.828125 C 67.75 -29.171875 68.328125 -32.84375 68.546875 -36.84375 C 68.773438 -40.851562 68.890625 -44.769531 68.890625 -48.59375 C 68.890625 -52.238281 68.664062 -55.972656 68.21875 -59.796875 C 67.769531 -63.628906 66.921875 -67.191406 65.671875 -70.484375 C 64.429688 -73.773438 62.675781 -76.421875 60.40625 -78.421875 C 58.132812 -80.429688 55.128906 -81.4375 51.390625 -81.4375 C 49.347656 -81.4375 47.679688 -80.742188 46.390625 -79.359375 C 45.097656 -77.984375 44.117188 -76.25 43.453125 -74.15625 C 42.785156 -72.0625 42.335938 -69.898438 42.109375 -67.671875 C 41.890625 -65.453125 41.78125 -63.5 41.78125 -61.8125 Z M 41.78125 -61.8125 "/></g></g></g><g fill="#ff2403" fill-opacity="1"><g transform="translate(114.195113, 172.257284)"><g><path d="M 3.34375 -20.828125 C 3.34375 -27.941406 4.765625 -34.191406 7.609375 -39.578125 C 10.453125 -44.960938 14.300781 -49.59375 19.15625 -53.46875 C 24.007812 -57.34375 29.4375 -60.523438 35.4375 -63.015625 C 41.445312 -65.503906 47.566406 -67.414062 53.796875 -68.75 C 55.753906 -69.195312 57.046875 -70 57.671875 -71.15625 C 58.296875 -72.3125 58.609375 -73.46875 58.609375 -74.625 C 58.609375 -76.582031 58.316406 -78.609375 57.734375 -80.703125 C 57.160156 -82.796875 56.050781 -84.578125 54.40625 -86.046875 C 52.757812 -87.515625 50.285156 -88.203125 46.984375 -88.109375 C 43.609375 -88.023438 40.539062 -87.046875 37.78125 -85.171875 C 35.019531 -83.304688 32.503906 -81.015625 30.234375 -78.296875 C 27.960938 -75.578125 25.847656 -72.859375 23.890625 -70.140625 C 21.929688 -67.429688 20.082031 -65.164062 18.34375 -63.34375 C 16.613281 -61.519531 14.90625 -60.609375 13.21875 -60.609375 C 12.144531 -60.609375 11.1875 -61.03125 10.34375 -61.875 C 9.5 -62.71875 9.078125 -63.71875 9.078125 -64.875 L 9.078125 -72.21875 C 9.078125 -74.53125 9.097656 -76.800781 9.140625 -79.03125 C 9.191406 -81.257812 10.0625 -83.171875 11.75 -84.765625 C 16.289062 -89.128906 21.875 -92 28.5 -93.375 C 35.132812 -94.757812 41.96875 -95.453125 49 -95.453125 C 56.644531 -95.453125 63.316406 -94.269531 69.015625 -91.90625 C 74.710938 -89.550781 79.40625 -86.4375 83.09375 -82.5625 C 86.789062 -78.695312 89.550781 -74.40625 91.375 -69.6875 C 93.207031 -64.96875 94.125 -60.207031 94.125 -55.40625 L 94.125 -15.75 C 94.125 -11.925781 94.457031 -8.789062 95.125 -6.34375 C 95.789062 -3.894531 97.015625 -1.78125 98.796875 0 L 66.078125 0 C 62.160156 0 59.847656 -1.910156 59.140625 -5.734375 C 58.960938 -6.890625 58.582031 -7.957031 58 -8.9375 C 57.425781 -9.914062 56.648438 -10.40625 55.671875 -10.40625 C 54.242188 -10.40625 52.835938 -9.78125 51.453125 -8.53125 C 50.078125 -7.289062 48.410156 -5.847656 46.453125 -4.203125 C 44.492188 -2.554688 41.976562 -1.113281 38.90625 0.125 C 35.84375 1.375 31.90625 2 27.09375 2 C 22.820312 2 18.882812 0.976562 15.28125 -1.0625 C 11.675781 -3.113281 8.785156 -5.851562 6.609375 -9.28125 C 4.429688 -12.707031 3.34375 -16.554688 3.34375 -20.828125 Z M 53.796875 -60.078125 C 50.953125 -60.078125 48.082031 -58.984375 45.1875 -56.796875 C 42.289062 -54.617188 39.910156 -51.550781 38.046875 -47.59375 C 36.179688 -43.632812 35.25 -38.894531 35.25 -33.375 C 35.25 -30.257812 35.625 -27.300781 36.375 -24.5 C 37.132812 -21.695312 38.425781 -19.40625 40.25 -17.625 C 42.070312 -15.84375 44.628906 -14.953125 47.921875 -14.953125 C 51.578125 -14.953125 54.289062 -16.394531 56.0625 -19.28125 C 57.84375 -22.175781 58.734375 -25.804688 58.734375 -30.171875 C 58.734375 -34.359375 58.710938 -37.984375 58.671875 -41.046875 C 58.628906 -44.117188 58.609375 -47.703125 58.609375 -51.796875 C 58.609375 -54.828125 58.25 -56.960938 57.53125 -58.203125 C 56.820312 -59.453125 55.578125 -60.078125 53.796875 -60.078125 Z M 53.796875 -60.078125 "/></g></g></g><g fill="#ff2403" fill-opacity="1"><g transform="translate(213.646771, 172.257284)"><g><path d="M -1.328125 -79.171875 C -1.328125 -79.878906 -1.101562 -80.320312 -0.65625 -80.5 C -0.21875 -80.675781 0.046875 -80.8125 0.140625 -80.90625 C 1.203125 -81.34375 2.910156 -82.09375 5.265625 -83.15625 C 7.628906 -84.226562 10.34375 -85.453125 13.40625 -86.828125 C 16.476562 -88.210938 19.570312 -89.570312 22.6875 -90.90625 C 25.8125 -92.25 28.707031 -93.34375 31.375 -94.1875 C 34.039062 -95.03125 36.175781 -95.453125 37.78125 -95.453125 C 39.738281 -95.453125 40.894531 -94.914062 41.25 -93.84375 C 41.601562 -92.78125 41.78125 -91.582031 41.78125 -90.25 L 41.78125 -86.234375 C 42.050781 -85.617188 42.363281 -85.242188 42.71875 -85.109375 C 43.070312 -84.972656 43.472656 -84.90625 43.921875 -84.90625 C 44.628906 -84.90625 45.492188 -85.4375 46.515625 -86.5 C 47.546875 -87.570312 48.90625 -88.796875 50.59375 -90.171875 C 52.289062 -91.554688 54.40625 -92.78125 56.9375 -93.84375 C 59.476562 -94.914062 62.613281 -95.453125 66.34375 -95.453125 C 72.9375 -95.453125 78.613281 -93.960938 83.375 -90.984375 C 88.132812 -88.003906 92.046875 -84.066406 95.109375 -79.171875 C 98.179688 -74.273438 100.453125 -68.84375 101.921875 -62.875 C 103.390625 -56.914062 104.125 -50.910156 104.125 -44.859375 C 104.125 -36.222656 102.65625 -28.367188 99.71875 -21.296875 C 96.78125 -14.222656 92.484375 -8.570312 86.828125 -4.34375 C 81.179688 -0.113281 74.351562 2 66.34375 2 C 62.875 2 59.222656 1.132812 55.390625 -0.59375 C 51.566406 -2.332031 47.832031 -6.050781 44.1875 -11.75 C 43.738281 -12.457031 43.222656 -12.96875 42.640625 -13.28125 C 42.066406 -13.59375 41.78125 -13.257812 41.78125 -12.28125 L 41.78125 29.109375 C 41.78125 32.484375 41.269531 35.148438 40.25 37.109375 C 39.226562 39.066406 37.289062 40.046875 34.4375 40.046875 L 1.734375 40.046875 C 3.515625 38.265625 4.738281 36.148438 5.40625 33.703125 C 6.070312 31.253906 6.40625 28.117188 6.40625 24.296875 L 6.40625 -67.015625 C 6.40625 -67.546875 6.359375 -68.5 6.265625 -69.875 C 6.179688 -71.257812 5.757812 -72.664062 5 -74.09375 C 4.25 -75.519531 2.804688 -76.585938 0.671875 -77.296875 C 0.492188 -77.390625 0.117188 -77.523438 -0.453125 -77.703125 C -1.035156 -77.878906 -1.328125 -78.367188 -1.328125 -79.171875 Z M 41.78125 -61.8125 L 41.78125 -35.78125 C 41.78125 -33.90625 41.890625 -31.789062 42.109375 -29.4375 C 42.335938 -27.082031 42.851562 -24.769531 43.65625 -22.5 C 44.457031 -20.226562 45.632812 -18.359375 47.1875 -16.890625 C 48.75 -15.421875 50.863281 -14.6875 53.53125 -14.6875 C 57.269531 -14.6875 60.1875 -15.707031 62.28125 -17.75 C 64.375 -19.800781 65.882812 -22.492188 66.8125 -25.828125 C 67.75 -29.171875 68.328125 -32.84375 68.546875 -36.84375 C 68.773438 -40.851562 68.890625 -44.769531 68.890625 -48.59375 C 68.890625 -52.238281 68.664062 -55.972656 68.21875 -59.796875 C 67.769531 -63.628906 66.921875 -67.191406 65.671875 -70.484375 C 64.429688 -73.773438 62.675781 -76.421875 60.40625 -78.421875 C 58.132812 -80.429688 55.128906 -81.4375 51.390625 -81.4375 C 49.347656 -81.4375 47.679688 -80.742188 46.390625 -79.359375 C 45.097656 -77.984375 44.117188 -76.25 43.453125 -74.15625 C 42.785156 -72.0625 42.335938 -69.898438 42.109375 -67.671875 C 41.890625 -65.453125 41.78125 -63.5 41.78125 -61.8125 Z M 41.78125 -61.8125 "/></g></g></g><g fill="#ff2403" fill-opacity="1"><g transform="translate(321.107957, 172.257284)"><g><path d="M 0 -79.171875 C 0 -79.878906 0.21875 -80.320312 0.65625 -80.5 C 1.101562 -80.675781 1.375 -80.8125 1.46875 -80.90625 C 2.539062 -81.4375 4.207031 -82.257812 6.46875 -83.375 C 8.738281 -84.488281 11.320312 -85.734375 14.21875 -87.109375 C 17.113281 -88.484375 20.070312 -89.796875 23.09375 -91.046875 C 26.125 -92.296875 28.925781 -93.34375 31.5 -94.1875 C 34.082031 -95.03125 36.175781 -95.453125 37.78125 -95.453125 C 39.738281 -95.453125 40.894531 -94.914062 41.25 -93.84375 C 41.601562 -92.78125 41.78125 -91.582031 41.78125 -90.25 L 41.78125 -15.75 C 41.78125 -11.925781 42.113281 -8.789062 42.78125 -6.34375 C 43.445312 -3.894531 44.671875 -1.78125 46.453125 0 L 1.734375 0 C 3.515625 -1.78125 4.738281 -3.894531 5.40625 -6.34375 C 6.070312 -8.789062 6.40625 -11.925781 6.40625 -15.75 L 6.40625 -67.015625 C 6.40625 -67.546875 6.382812 -68.523438 6.34375 -69.953125 C 6.300781 -71.378906 5.988281 -72.828125 5.40625 -74.296875 C 4.820312 -75.765625 3.6875 -76.765625 2 -77.296875 C 1.820312 -77.390625 1.441406 -77.523438 0.859375 -77.703125 C 0.285156 -77.878906 0 -78.367188 0 -79.171875 Z M 23.765625 -141.375 C 29.640625 -141.375 34.351562 -139.59375 37.90625 -136.03125 C 41.46875 -132.476562 43.25 -127.765625 43.25 -121.890625 C 43.25 -116.015625 41.46875 -111.296875 37.90625 -107.734375 C 34.351562 -104.171875 29.640625 -102.390625 23.765625 -102.390625 C 17.890625 -102.390625 13.171875 -104.171875 9.609375 -107.734375 C 6.046875 -111.296875 4.265625 -116.015625 4.265625 -121.890625 C 4.265625 -127.765625 6.046875 -132.476562 9.609375 -136.03125 C 13.171875 -139.59375 17.890625 -141.375 23.765625 -141.375 Z M 23.765625 -141.375 "/></g></g></g><g fill="#111111" fill-opacity="1"><g transform="translate(8.920373, 56.819061)"><g><path d="M 32.375 0 L 24.953125 0 L 23.96875 -8.484375 L 9.96875 -8.484375 L 5.46875 0 L -2.390625 0 L 18.03125 -36.8125 L 27.390625 -36.8125 Z M 20.96875 -29.125 L 13.25 -14.609375 L 23.265625 -14.609375 L 21.609375 -29.125 Z M 20.96875 -29.125 "/></g></g></g><g fill="#111111" fill-opacity="1"><g transform="translate(44.787142, 56.819061)"><g><path d="M 11.40625 0.53125 C 9.644531 0.53125 8.066406 0.15625 6.671875 -0.59375 C 5.273438 -1.34375 4.171875 -2.492188 3.359375 -4.046875 C 2.546875 -5.597656 2.140625 -7.539062 2.140625 -9.875 C 2.140625 -11.414062 2.34375 -13.144531 2.75 -15.0625 C 3.664062 -19.375 5.335938 -22.65625 7.765625 -24.90625 C 10.191406 -27.164062 13.257812 -28.296875 16.96875 -28.296875 C 18.664062 -28.296875 20.097656 -27.957031 21.265625 -27.28125 C 22.441406 -26.601562 23.359375 -25.648438 24.015625 -24.421875 L 24.578125 -24.546875 L 27.640625 -38.921875 L 34.625 -38.921875 L 26.328125 0 L 19.359375 0 L 20.09375 -3.34375 L 19.59375 -3.453125 C 18.582031 -2.140625 17.453125 -1.144531 16.203125 -0.46875 C 14.960938 0.195312 13.363281 0.53125 11.40625 0.53125 Z M 14.25 -5.390625 C 16.21875 -5.390625 17.894531 -6.039062 19.28125 -7.34375 C 20.675781 -8.644531 21.664062 -10.65625 22.25 -13.375 C 22.507812 -14.582031 22.640625 -15.644531 22.640625 -16.5625 C 22.640625 -18.507812 22.175781 -19.960938 21.25 -20.921875 C 20.320312 -21.890625 19.140625 -22.375 17.703125 -22.375 C 15.703125 -22.375 14.015625 -21.691406 12.640625 -20.328125 C 11.273438 -18.972656 10.316406 -16.988281 9.765625 -14.375 C 9.492188 -13.132812 9.359375 -12.003906 9.359375 -10.984375 C 9.359375 -9.066406 9.800781 -7.65625 10.6875 -6.75 C 11.570312 -5.84375 12.757812 -5.390625 14.25 -5.390625 Z M 14.25 -5.390625 "/></g></g></g><g fill="#111111" fill-opacity="1"><g transform="translate(78.061436, 56.819061)"><g><path d="M 1.0625 0 L 6.953125 -27.765625 L 13.640625 -27.765625 L 12.859375 -24.046875 L 13.375 -23.9375 C 14.3125 -25.40625 15.472656 -26.5 16.859375 -27.21875 C 18.242188 -27.9375 19.898438 -28.296875 21.828125 -28.296875 C 25.753906 -28.296875 28.128906 -26.671875 28.953125 -23.421875 L 29.484375 -23.421875 C 30.535156 -25.097656 31.78125 -26.328125 33.21875 -27.109375 C 34.65625 -27.898438 36.375 -28.296875 38.375 -28.296875 C 40.789062 -28.296875 42.613281 -27.671875 43.84375 -26.421875 C 45.082031 -25.171875 45.703125 -23.421875 45.703125 -21.171875 C 45.703125 -20.160156 45.570312 -19.078125 45.3125 -17.921875 L 41.515625 0 L 34.546875 0 L 38.3125 -17.796875 C 38.4375 -18.335938 38.5 -18.859375 38.5 -19.359375 C 38.5 -21.390625 37.335938 -22.40625 35.015625 -22.40625 C 33.242188 -22.40625 31.753906 -21.800781 30.546875 -20.59375 C 29.347656 -19.382812 28.460938 -17.429688 27.890625 -14.734375 L 24.78125 0 L 17.796875 0 L 21.578125 -17.796875 C 21.691406 -18.335938 21.75 -18.859375 21.75 -19.359375 C 21.75 -21.390625 20.582031 -22.40625 18.25 -22.40625 C 16.488281 -22.40625 15.007812 -21.804688 13.8125 -20.609375 C 12.613281 -19.421875 11.734375 -17.507812 11.171875 -14.875 L 8.03125 0 Z M 1.0625 0 "/></g></g></g><g fill="#111111" fill-opacity="1"><g transform="translate(126.085151, 56.819061)"><g><path d="M 12.015625 -31.09375 C 10.753906 -31.09375 9.726562 -31.472656 8.9375 -32.234375 C 8.144531 -33.003906 7.75 -33.992188 7.75 -35.203125 C 7.75 -36.390625 8.144531 -37.363281 8.9375 -38.125 C 9.726562 -38.894531 10.753906 -39.28125 12.015625 -39.28125 C 12.847656 -39.28125 13.59375 -39.101562 14.25 -38.75 C 14.90625 -38.394531 15.410156 -37.910156 15.765625 -37.296875 C 16.128906 -36.679688 16.3125 -35.984375 16.3125 -35.203125 C 16.3125 -34.410156 16.128906 -33.703125 15.765625 -33.078125 C 15.410156 -32.460938 14.90625 -31.976562 14.25 -31.625 C 13.59375 -31.269531 12.847656 -31.09375 12.015625 -31.09375 Z M 1.0625 0 L 6.96875 -27.765625 L 13.953125 -27.765625 L 8.03125 0 Z M 1.0625 0 "/></g></g></g><g fill="#111111" fill-opacity="1"><g transform="translate(141.035931, 56.819061)"><g><path d="M 1.0625 0 L 6.953125 -27.765625 L 13.640625 -27.765625 L 12.796875 -23.6875 L 13.265625 -23.5625 C 14.304688 -25.125 15.546875 -26.300781 16.984375 -27.09375 C 18.421875 -27.894531 20.15625 -28.296875 22.1875 -28.296875 C 24.738281 -28.296875 26.679688 -27.601562 28.015625 -26.21875 C 29.347656 -24.832031 30.015625 -22.914062 30.015625 -20.46875 C 30.015625 -19.425781 29.890625 -18.285156 29.640625 -17.046875 L 26.015625 0 L 19.03125 0 L 22.6875 -17.203125 C 22.800781 -17.710938 22.859375 -18.238281 22.859375 -18.78125 C 22.859375 -19.9375 22.519531 -20.828125 21.84375 -21.453125 C 21.175781 -22.085938 20.1875 -22.40625 18.875 -22.40625 C 16.945312 -22.40625 15.3125 -21.757812 13.96875 -20.46875 C 12.625 -19.175781 11.660156 -17.144531 11.078125 -14.375 L 8.03125 0 Z M 1.0625 0 "/></g></g></g></svg>